<?xml version="1.0" encoding="UTF-8" standalone="no"?>
<!-- Created with Inkscape (http://www.inkscape.org/) -->

<svg
   xmlns:dc="http://purl.org/dc/elements/1.1/"
   xmlns:cc="http://creativecommons.org/ns#"
   xmlns:rdf="http://www.w3.org/1999/02/22-rdf-syntax-ns#"
   xmlns:svg="http://www.w3.org/2000/svg"
   xmlns="http://www.w3.org/2000/svg"
   xmlns:sodipodi="http://sodipodi.sourceforge.net/DTD/sodipodi-0.dtd"
   xmlns:inkscape="http://www.inkscape.org/namespaces/inkscape"
   inkscape:export-ydpi="90.000000"
   inkscape:export-xdpi="90.000000"
   width="24"
   height="24"
   id="svg11300"
   sodipodi:version="0.32"
   inkscape:version="0.92.3 (2405546, 2018-03-11)"
   sodipodi:docname="activities.svg"
   inkscape:output_extension="org.inkscape.output.svg.inkscape"
   version="1.0"
   style="display:inline;enable-background:new"
   viewBox="0 0 16.8 16.8">
  <sodipodi:namedview
     stroke="#ef2929"
     fill="#f57900"
     id="base"
     pagecolor="#bebebe"
     bordercolor="#525252"
     borderopacity="1"
     inkscape:pageopacity="1"
     inkscape:pageshadow="2"
     inkscape:zoom="11.313709"
     inkscape:cx="14.474275"
     inkscape:cy="7.7012799"
     inkscape:current-layer="layer1"
     showgrid="false"
     inkscape:grid-bbox="true"
     inkscape:document-units="px"
     inkscape:showpageshadow="true"
     inkscape:window-width="1360"
     inkscape:window-height="696"
     inkscape:window-x="0"
     inkscape:window-y="38"
     width="400px"
     height="300px"
     inkscape:snap-nodes="false"
     inkscape:snap-bbox="false"
     gridtolerance="10000"
     inkscape:object-nodes="false"
     inkscape:snap-grids="true"
     showguides="true"
     inkscape:guide-bbox="true"
     inkscape:window-maximized="1"
     inkscape:bbox-nodes="false"
     inkscape:bbox-paths="false"
     inkscape:snap-bbox-edge-midpoints="false"
     inkscape:snap-bbox-midpoints="false"
     objecttolerance="10000"
     guidetolerance="10000"
     borderlayer="true"
     showborder="true"
     guidecolor="#ff0b00"
     guideopacity="1"
     guidehicolor="#001aff"
     guidehiopacity="0.49803922"
     scale-x="0.7"
     inkscape:snap-center="true"
     inkscape:snap-object-midpoints="false">
    <inkscape:grid
       type="xygrid"
       id="grid3123"
       empspacing="4"
       visible="true"
       enabled="true"
       snapvisiblegridlinesonly="true" />
  </sodipodi:namedview>
  <defs
     id="defs3" />
  <metadata
     id="metadata4">
    <rdf:RDF>
      <cc:Work
         rdf:about="">
        <dc:format>image/svg+xml</dc:format>
        <dc:type
           rdf:resource="http://purl.org/dc/dcmitype/StillImage" />
        <dc:creator>
          <cc:Agent>
            <dc:title />
          </cc:Agent>
        </dc:creator>
        <dc:source />
        <cc:license
           rdf:resource="" />
        <dc:title />
        <dc:subject>
          <rdf:Bag />
        </dc:subject>
        <dc:date />
        <dc:rights>
          <cc:Agent>
            <dc:title />
          </cc:Agent>
        </dc:rights>
        <dc:publisher>
          <cc:Agent>
            <dc:title />
          </cc:Agent>
        </dc:publisher>
        <dc:identifier />
        <dc:relation />
        <dc:language />
        <dc:coverage />
        <dc:description />
        <dc:contributor>
          <cc:Agent>
            <dc:title />
          </cc:Agent>
        </dc:contributor>
      </cc:Work>
      <cc:Work
         rdf:about="">
        <dc:format>image/svg+xml</dc:format>
        <dc:type
           rdf:resource="http://purl.org/dc/dcmitype/StillImage" />
      </cc:Work>
    </rdf:RDF>
  </metadata>
  <g
     style="display:inline"
     inkscape:groupmode="layer"
     inkscape:label="Base"
     id="layer1"
     transform="translate(0,-276)">
    <g
       id="g2126"
       style="opacity:0.98999999;fill:#e6e6e6;fill-opacity:1;stroke:#e6e6e6;stroke-width:0.26458332;stroke-miterlimit:4;stroke-dasharray:none;stroke-opacity:1"
       transform="matrix(0.3691055,0,0,0.3691055,51.325613,239.10115)"
       inkscape:export-filename="/media/bawah/FILE/projek/background/bluegnome/properties/logo-gnome.png"
       inkscape:export-xdpi="499.6575"
       inkscape:export-ydpi="499.6575">
      <path
         inkscape:connector-curvature="0"
         d="m 623.57227,403.33789 c -4.01399,-0.0138 -8.19844,0.416 -12.11719,1.03711 -11.12292,1.76292 -22.12779,6.37711 -26.55078,18.47852 -0.33472,0.91574 -1.15673,6.02701 -1.00782,9.0625 0.21544,4.3878 1.14358,8.67224 2.73438,12.89257 2.45246,6.50623 4.87018,10.93368 10.48633,17.41602 3.7409,4.31788 9.13174,7.9363 14.6582,10.10351 4.4623,1.74981 7.71501,2.68487 14.23242,2.06446 6.04589,-1.08461 10.51371,-3.62163 13.6836,-7.80274 2.82969,-3.73232 5.98442,-10.02702 3.39843,-13.62695 -2.22482,-3.0971 -15.95898,-0.0527 -15.95898,-0.0527 0.14846,0.76524 -0.0443,2.34527 -0.23633,3.44726 -0.41276,2.36761 -1.97318,5.14462 -7.26172,4.91406 -4.07905,-0.17782 -6.35451,-3.28387 -6.65234,-6.32617 -1.68684,-17.22255 35.96036,-26.15715 29.99805,-42.40625 -2.56678,-6.99522 -10.57548,-9.1709 -19.40625,-9.20117 z"
         style="fill:#e6e6e6;fill-opacity:1;stroke:#e6e6e6;stroke-width:1.00157475;stroke-linecap:butt;stroke-linejoin:miter;stroke-miterlimit:4;stroke-dasharray:none;stroke-opacity:1"
         transform="matrix(0.26458333,0,0,0.26458333,-279.92917,11.249983)"
         id="path2005" />
      <g
         style="fill:#e6e6e6;fill-opacity:1;stroke:#e6e6e6;stroke-width:0.77142411;stroke-miterlimit:4;stroke-dasharray:none;stroke-opacity:1"
         transform="matrix(0.34329964,0,0,0.34266139,-134.82868,20.819496)"
         id="g2015">
        <path
           sodipodi:nodetypes="acasa"
           inkscape:connector-curvature="0"
           id="path2007"
           d="m 49.291875,262.93166 c -1.519506,3.53225 0.627588,11.06814 3.095625,11.11251 2.524111,0.0454 5.282023,-6.55394 5.040313,-10.39813 -0.09317,-1.48182 -0.512679,-3.35888 -2.429649,-3.73324 -2.738071,-0.53469 -4.855934,1.04213 -5.706289,3.01886 z"
           style="fill:#e6e6e6;fill-opacity:1;stroke:#e6e6e6;stroke-width:0.77263898;stroke-linecap:butt;stroke-linejoin:miter;stroke-miterlimit:4;stroke-dasharray:none;stroke-opacity:1" />
        <path
           sodipodi:nodetypes="acasa"
           inkscape:connector-curvature="0"
           id="path2009"
           d="m 34.005139,269.41514 c -0.388711,3.39679 3.370273,9.26297 5.483012,8.66838 2.160742,-0.6081 2.818009,-6.93362 1.627235,-10.14476 -0.459006,-1.2378 -1.297138,-2.72851 -3.025231,-2.55608 -2.468281,0.24634 -3.867483,2.13153 -4.085016,4.03246 z"
           style="fill:#e6e6e6;fill-opacity:1;stroke:#e6e6e6;stroke-width:0.77263898;stroke-linecap:butt;stroke-linejoin:miter;stroke-miterlimit:4;stroke-dasharray:none;stroke-opacity:1" />
        <path
           style="fill:#e6e6e6;fill-opacity:1;stroke:#e6e6e6;stroke-width:0.77263898;stroke-linecap:butt;stroke-linejoin:miter;stroke-miterlimit:4;stroke-dasharray:none;stroke-opacity:1"
           d="m 23.579668,279.20115 c 0.0474,3.08709 4.096617,7.90262 5.919356,7.12416 1.864148,-0.79613 1.716231,-6.5372 0.275997,-9.27415 -0.555162,-1.055 -1.479284,-2.29235 -3.006723,-1.93674 -2.181675,0.50799 -3.215165,2.35911 -3.188634,4.08673 z"
           id="path2011"
           inkscape:connector-curvature="0"
           sodipodi:nodetypes="acasa" />
        <path
           style="fill:#e6e6e6;fill-opacity:1;stroke:#e6e6e6;stroke-width:0.77263898;stroke-linecap:butt;stroke-linejoin:miter;stroke-miterlimit:4;stroke-dasharray:none;stroke-opacity:1"
           d="m 68.821837,260.6568 c -3.717446,4.09248 -4.986105,14.11458 -1.532222,16.51553 3.532323,2.45554 10.566986,-4.73102 13.726855,-9.25534 1.97748,-2.83137 4.841225,-7.71303 2.480536,-10.05935 -3.371871,-3.3513 -11.326793,-0.88702 -14.675169,2.79916 z"
           id="path2013"
           inkscape:connector-curvature="0"
           sodipodi:nodetypes="acasa" />
      </g>
    </g>
  </g>
</svg>
