<svg xmlns="http://www.w3.org/2000/svg" viewBox="0 0 473 473" width="16" height="16">
	<style>
		tspan { white-space:pre }
		.shp0 { fill: #aeaeae } 
		.shp1 { fill: #bfbfbf } 
	</style>
	<path id="Layer" class="shp0" d="M436,117.2h36.8l-64.8,-66.4l-65.6,64h36.8l28.8,-27.2z" />
	<path id="Layer" class="shp1" d="M379.2,114.8l28.8,-27.2l28,29.6h36.8l-64.8,-66.4" />
	<path id="Layer" class="shp0" d="M436,197.2h36.8l-64.8,-64.8l-65.6,64.8h36.8l28.8,-28.8z" />
	<g id="Layer">
		<path id="Layer" class="shp1" d="M379.2,197.2l28.8,-28.8l28,28.8h36.8l-64.8,-64.8" />
		<path id="Layer" class="shp1" d="M350.4,237.2c-1.6,64 -51.2,112.8 -113.6,112.8c-63.2,0 -114.4,-50.4 -114.4,-113.6c0,-60.8 50.4,-109.6 106.4,-112.8v-122.4c-128,3.2 -228.8,108 -228.8,236c0,130.4 106.4,234.4 236.8,234.4c128.8,0 234.4,-106.4 236,-234.4z" />
	</g>
	<path id="Layer" class="shp0" d="M0.8,237.2c0,130.4 105.6,234.4 236,234.4c129.6,0 234.4,-106.4 236,-234.4h-122.4c-1.6,64 -51.2,112.8 -113.6,112.8c-63.2,0 -114.4,-50.4 -114.4,-113.6" />
	<g id="Layer">
	</g>
	<g id="Layer">
	</g>
	<g id="Layer">
	</g>
	<g id="Layer">
	</g>
	<g id="Layer">
	</g>
	<g id="Layer">
	</g>
	<g id="Layer">
	</g>
	<g id="Layer">
	</g>
	<g id="Layer">
	</g>
	<g id="Layer">
	</g>
	<g id="Layer">
	</g>
	<g id="Layer">
	</g>
	<g id="Layer">
	</g>
	<g id="Layer">
	</g>
	<g id="Layer">
	</g>
</svg>